# xmcd CD database file
#
# Track frame offsets:
#	150
#	13455
#	33633
#	52725
#	69995
#	90730
#	109768
#	128495
#	146875
#	170508
#	192283
#	211583
#	227563
#	246413
#	265100
#	283165
#	302105
#
# Disc length: 4355 seconds
#
# Revision: 0
# Processed by: cddbd v1.5.1PL0 Copyright (c) Steve Scherf et al.
# Submitted via: CDex 1.51
#
DISCID=f3110111
DTITLE=Jazzkantine - Geheimrezept
DYEAR=1998
DGENRE=Jazz
TTITLE0=Wortsalat 
TTITLE1=Kantinental 
TTITLE2=Kein Bock 
TTITLE3=Ich mach Dich high 
TTITLE4=Alles nur Chemie 
TTITLE5=Schmackofatz
TTITLE6=Secret Recipe 
TTITLE7=Krankenhaus 
TTITLE8=Chaos 
TTITLE9=Tip Top Typ
TTITLE10=Geliebt, gehasst, vermisst
TTITLE11=Zugestiegen, dabeisein
TTITLE12=Die Uhr tickt 
TTITLE13=Klingelalarm 
TTITLE14=On the Backflight
TTITLE15=Scheiss drauf
TTITLE16=Walzer
EXTD=YEAR: 1998
EXTT0=
EXTT1=
EXTT2=
EXTT3=
EXTT4=
EXTT5=
EXTT6=
EXTT7=
EXTT8=
EXTT9=
EXTT10=
EXTT11=
EXTT12=
EXTT13=
EXTT14=
EXTT15=
EXTT16=
PLAYORDER=
